<?xml version="1.0" encoding="UTF-8"?>
<svg xmlns="http://www.w3.org/2000/svg" xmlns:xlink="http://www.w3.org/1999/xlink" width="570.33pt" height="489.62pt" viewBox="0 0 570.33 489.62" version="1.1">
<defs>
<g id="paths">
  <clipPath id="clip1">
    <path d="M 14 0 L 560 0 L 560 489.621094 L 14 489.621094 Z M 14 0 "/>
  </clipPath>
  <clipPath id="clip2">
    <path d="M 0 135 L 570.328125 135 L 570.328125 471 L 0 471 Z M 0 135 "/>
  </clipPath>
  <clipPath id="clip3">
    <path d="M 360 114 L 570.328125 114 L 570.328125 389 L 360 389 Z M 360 114 "/>
  </clipPath>
</g>
</defs>
<g id="surface1">
<path style=" stroke:none;fill-rule:nonzero;fill:rgb(0%,0%,0%);fill-opacity:1;" d="M 55.378906 139.996094 L 286.878906 446.664063 L 516.378906 149.328125 L 422.777344 15.496094 L 146.375 15.496094 Z M 134.378906 0.496094 L 434.378906 0.496094 L 545.378906 149.246094 L 287.710938 488.789063 L 28.378906 141.308594 "/>
<g clip-path="url(#clip1)" clip-rule="nonzero">
<path style="fill:none;stroke-width:10;stroke-linecap:butt;stroke-linejoin:miter;stroke:rgb(0%,0%,0%);stroke-opacity:1;stroke-miterlimit:10;" d="M 553.789063 3496.239062 L 2868.789063 429.559375 L 5163.789063 3402.91875 L 4227.773438 4741.239062 L 1463.75 4741.239062 Z M 1343.789063 4891.239062 L 4343.789063 4891.239062 L 5453.789063 3403.739062 L 2877.109375 8.309375 L 283.789063 3483.114062 Z M 1343.789063 4891.239062 " transform="matrix(0.1,0,0,-0.1,0,489.62)"/>
</g>
<path style=" stroke:none;fill-rule:nonzero;fill:rgb(100%,100%,100%);fill-opacity:1;" d="M 144.378906 18.996094 L 212.378906 18.996094 L 168.648438 145.246094 L 54.296875 143.386719 Z M 144.378906 18.996094 "/>
<path style=" stroke:none;fill-rule:nonzero;fill:rgb(88.999939%,93.299866%,93.299866%);fill-opacity:1;" d="M 279.488281 15.996094 L 213.585938 15.996094 L 168.648438 145.996094 L 275.378906 145.996094 Z M 279.488281 15.996094 "/>
<path style=" stroke:none;fill-rule:nonzero;fill:rgb(65.899658%,70.999146%,73.699951%);fill-opacity:1;" d="M 282.410156 15.996094 L 281.128906 145.746094 L 385.878906 145.371094 L 348.023438 15.996094 Z M 282.410156 15.996094 "/>
<path style=" stroke:none;fill-rule:nonzero;fill:rgb(88.598633%,92.199707%,92.498779%);fill-opacity:1;" d="M 351.816406 15.996094 L 396.878906 145.996094 L 509.378906 145.996094 L 418.773438 15.996094 Z M 351.816406 15.996094 "/>
<path style=" stroke:none;fill-rule:nonzero;fill:rgb(100%,100%,100%);fill-opacity:1;" d="M 53.378906 142.996094 L 509.378906 145.496094 L 514.378906 152.328125 L 284.878906 449.664063 Z M 53.378906 142.996094 "/>
<path style=" stroke:none;fill-rule:nonzero;fill:rgb(89.399719%,94.499207%,95.698547%);fill-opacity:1;" d="M 281.128906 438.332031 L 160.375 144.851563 L 53.378906 142.996094 "/>
<path style=" stroke:none;fill-rule:nonzero;fill:rgb(67.098999%,73.699951%,76.098633%);fill-opacity:1;" d="M 283.878906 435.664063 L 164.367188 144.921875 L 275.378906 145.496094 "/>
<path style=" stroke:none;fill-rule:nonzero;fill:rgb(90.19928%,94.099426%,94.499207%);fill-opacity:1;" d="M 289.199219 435.664063 L 283.878906 145.484375 L 396.878906 145.496094 "/>
<path style=" stroke:none;fill-rule:nonzero;fill:rgb(0%,0%,0%);fill-opacity:1;" d="M 96.878906 167.371094 C 96.878906 167.371094 96.378906 175.683594 100.628906 180.683594 L 115.628906 201.964844 C 115.628906 201.964844 121.128906 208.730469 123.628906 209.730469 C 123.628906 209.730469 133.378906 214.988281 133.878906 215.988281 C 133.878906 215.988281 150.878906 230.242188 152.128906 232.492188 C 152.128906 232.492188 161.128906 233.746094 168.378906 230.496094 L 199.628906 231.246094 C 199.628906 231.246094 205.628906 229.996094 209.128906 227.496094 C 209.128906 227.496094 228.378906 212.746094 238.628906 212.996094 C 238.628906 212.996094 248.628906 211.746094 253.378906 212.746094 C 253.378906 212.746094 257.378906 232.996094 279.628906 267.746094 C 279.628906 267.746094 396.378906 268.496094 434.378906 253.246094 L 434.378906 233.996094 C 434.378906 233.996094 441.628906 224.496094 450.628906 224.246094 L 459.753906 220.246094 C 459.753906 220.246094 492.691406 179.246094 493.441406 172.996094 C 493.441406 172.996094 496.535156 170.996094 485.035156 165.996094 C 485.035156 165.996094 455.582031 136.246094 450.582031 128.496094 C 450.582031 128.496094 427.855469 101.496094 421.105469 96.246094 C 421.105469 96.246094 416.867188 91.746094 415.117188 88.246094 C 415.117188 88.246094 409.121094 58.996094 398.621094 52.996094 C 398.621094 52.996094 362.125 35.246094 323.625 32.496094 C 323.625 32.496094 259.378906 39.746094 230.378906 60.746094 L 205.378906 82.496094 C 205.378906 82.496094 195.878906 102.496094 185.128906 111.246094 C 185.128906 111.246094 152.878906 134.746094 148.378906 138.746094 L 133.878906 150.125 C 133.878906 150.125 105.378906 160.246094 96.878906 167.371094 "/>
<path style="fill:none;stroke-width:40;stroke-linecap:butt;stroke-linejoin:miter;stroke:rgb(100%,100%,100%);stroke-opacity:1;stroke-miterlimit:10;" d="M 968.789063 3222.489062 C 968.789063 3222.489062 963.789063 3139.364062 1006.289063 3089.364062 L 1156.289063 2876.551562 C 1156.289063 2876.551562 1211.289063 2808.895312 1236.289063 2798.895312 C 1236.289063 2798.895312 1333.789063 2746.317187 1338.789063 2736.317187 C 1338.789063 2736.317187 1508.789063 2593.778125 1521.289063 2571.278125 C 1521.289063 2571.278125 1611.289063 2558.739062 1683.789063 2591.239062 L 1996.289063 2583.739062 C 1996.289063 2583.739062 2056.289063 2596.239062 2091.289063 2621.239062 C 2091.289063 2621.239062 2283.789063 2768.739062 2386.289063 2766.239062 C 2386.289063 2766.239062 2486.289063 2778.739062 2533.789063 2768.739062 C 2533.789063 2768.739062 2573.789063 2566.239062 2796.289063 2218.739062 C 2796.289063 2218.739062 3963.789063 2211.239062 4343.789063 2363.739062 L 4343.789063 2556.239062 C 4343.789063 2556.239062 4416.289063 2651.239062 4506.289063 2653.739062 L 4597.539063 2693.739062 C 4597.539063 2693.739062 4926.914063 3103.739062 4934.414063 3166.239062 C 4934.414063 3166.239062 4965.351563 3186.239062 4850.351563 3236.239062 C 4850.351563 3236.239062 4555.820313 3533.739062 4505.820313 3611.239062 C 4505.820313 3611.239062 4278.554688 3881.239062 4211.054688 3933.739062 C 4211.054688 3933.739062 4168.671875 3978.739062 4151.171875 4013.739062 C 4151.171875 4013.739062 4091.210938 4306.239062 3986.210938 4366.239062 C 3986.210938 4366.239062 3621.25 4543.739062 3236.25 4571.239062 C 3236.25 4571.239062 2593.789063 4498.739062 2303.789063 4288.739062 L 2053.789063 4071.239062 C 2053.789063 4071.239062 1958.789063 3871.239062 1851.289063 3783.739062 C 1851.289063 3783.739062 1528.789063 3548.739062 1483.789063 3508.739062 L 1338.789063 3394.95 C 1338.789063 3394.95 1053.789063 3293.739062 968.789063 3222.489062 Z M 968.789063 3222.489062 " transform="matrix(0.1,0,0,-0.1,0,489.62)"/>
<path style=" stroke:none;fill-rule:nonzero;fill:rgb(100%,100%,100%);fill-opacity:1;" d="M 104.785156 183.96875 C 108.730469 182.863281 112.484375 181.410156 116.152344 179.589844 C 116.757813 179.292969 116.988281 178.511719 116.84375 177.898438 C 116.726563 177.410156 116.304688 176.667969 116.210938 176.195313 C 114.117188 174.605469 114.917969 172.804688 118.605469 170.789063 L 120.074219 170.84375 C 123.109375 170.3125 125.605469 171.570313 128.609375 170.21875 C 133.621094 167.960938 135.820313 162.714844 137.710938 157.90625 C 138.417969 156.109375 135.515625 155.332031 134.816406 157.109375 C 132.761719 162.339844 130.292969 167.753906 123.960938 168.171875 C 120.652344 168.390625 117.453125 167.058594 114.347656 168.800781 C 112.710938 169.71875 111.449219 171.25 111.300781 173.203125 C 111.09375 175.914063 113.40625 176.414063 113.949219 178.695313 C 114.179688 178.128906 114.410156 177.566406 114.640625 177 C 111.195313 178.707031 107.6875 180.039063 103.984375 181.078125 C 102.128906 181.597656 102.917969 184.492188 104.785156 183.96875 "/>
<path style=" stroke:none;fill-rule:nonzero;fill:rgb(100%,100%,100%);fill-opacity:1;" d="M 137.296875 217.945313 C 142.941406 214.558594 150.40625 215.648438 156.746094 215.328125 C 162.625 215.035156 168.488281 214.492188 174.320313 213.703125 C 179.371094 213.019531 184.144531 212.136719 188.597656 209.558594 C 191.089844 208.117188 193.410156 206.351563 196.140625 205.363281 C 198.613281 204.472656 201.21875 204.1875 203.574219 202.964844 C 208.816406 200.238281 212.667969 196.671875 218.578125 195.03125 C 224.472656 193.398438 230.597656 193.089844 236.683594 193.210938 C 249.300781 193.460938 261.488281 194.582031 274.035156 192.570313 C 275.9375 192.265625 275.132813 189.371094 273.238281 189.675781 C 259.308594 191.910156 245.707031 189.804688 231.742188 190.210938 C 226.785156 190.355469 221.769531 190.929688 217.007813 192.351563 C 211.78125 193.914063 207.96875 196.78125 203.402344 199.570313 C 198.917969 202.308594 193.597656 202.945313 189.015625 205.777344 C 183.027344 209.476563 177.011719 210.429688 170.117188 211.230469 C 163.773438 211.964844 157.386719 212.390625 151.003906 212.539063 C 145.636719 212.660156 140.519531 212.511719 135.785156 215.355469 C 134.128906 216.347656 135.636719 218.941406 137.296875 217.945313 "/>
<path style=" stroke:none;fill-rule:nonzero;fill:rgb(100%,100%,100%);fill-opacity:1;" d="M 162.890625 156.714844 C 167.027344 153.164063 171.667969 149.808594 175.300781 145.730469 C 176.605469 144.265625 177.5625 142.648438 178.632813 141.019531 C 180.957031 137.484375 183.414063 137.550781 187.15625 138.277344 C 189.832031 138.796875 191.972656 138.289063 193.367188 135.800781 C 194.484375 133.800781 194.964844 131.402344 195.878906 129.296875 C 197.191406 126.269531 198.796875 123.460938 200.613281 120.710938 C 201.683594 119.097656 199.085938 117.59375 198.023438 119.195313 C 196.484375 121.523438 195.070313 123.902344 193.878906 126.429688 C 192.992188 128.300781 192.488281 131.4375 191.269531 132.988281 C 187.914063 137.261719 184.097656 132.851563 180.019531 135.070313 C 176.78125 136.832031 175.511719 140.964844 173.175781 143.609375 C 169.570313 147.699219 164.894531 151.050781 160.769531 154.59375 C 159.304688 155.855469 161.433594 157.96875 162.890625 156.714844 "/>
<path style=" stroke:none;fill-rule:nonzero;fill:rgb(100%,100%,100%);fill-opacity:1;" d="M 197.480469 183.289063 C 209.132813 179.925781 222.183594 177.8125 231.929688 170.171875 C 235.867188 167.082031 239.488281 164.609375 244.589844 166.523438 C 247.304688 167.539063 249.875 168.964844 252.597656 169.992188 C 258.84375 172.351563 265.300781 173.808594 271.914063 174.652344 C 273.824219 174.898438 273.808594 171.894531 271.914063 171.652344 C 263.945313 170.636719 256.160156 168.53125 248.839844 165.199219 C 244.179688 163.078125 240.367188 161.554688 235.441406 164.0625 C 232.515625 165.550781 230.207031 167.953125 227.511719 169.785156 C 224.53125 171.8125 221.191406 173.144531 217.78125 174.257813 C 210.824219 176.519531 203.710938 178.367188 196.679688 180.394531 C 194.828125 180.929688 195.617188 183.824219 197.480469 183.289063 "/>
<path style=" stroke:none;fill-rule:nonzero;fill:rgb(100%,100%,100%);fill-opacity:1;" d="M 213.734375 131.464844 C 216.890625 132.234375 218.867188 135.03125 222.238281 135.613281 C 225.171875 136.117188 228.164063 135.558594 230.992188 134.777344 C 232.851563 134.265625 232.058594 131.371094 230.191406 131.886719 C 227.304688 132.679688 224.050781 133.355469 221.144531 132.25 C 218.707031 131.324219 217.121094 129.203125 214.53125 128.570313 C 212.65625 128.113281 211.855469 131.003906 213.734375 131.464844 "/>
<path style=" stroke:none;fill-rule:nonzero;fill:rgb(100%,100%,100%);fill-opacity:1;" d="M 212.953125 86.644531 C 210.558594 92.320313 208.109375 97.964844 205.605469 103.59375 C 205.125 104.671875 205.933594 106.265625 207.296875 105.796875 C 212.648438 103.953125 215.144531 111.339844 220.84375 110.328125 C 227.382813 109.171875 229.636719 102.070313 236.992188 102.546875 C 249.847656 103.378906 262.160156 94.070313 272.210938 87.046875 C 273.78125 85.945313 272.28125 83.34375 270.695313 84.453125 C 264.835938 88.550781 258.765625 92.355469 252.417969 95.65625 C 249.171875 97.34375 245.871094 98.933594 242.222656 99.472656 C 239.203125 99.921875 236.148438 99.03125 233.167969 99.601563 C 227.519531 100.675781 222.300781 110.757813 216.085938 105.5625 C 214.71875 104.421875 214.785156 102.953125 212.789063 102.242188 C 210.734375 101.519531 208.441406 102.234375 206.5 102.902344 C 207.066406 103.636719 207.628906 104.371094 208.195313 105.105469 C 210.699219 99.480469 213.148438 93.832031 215.542969 88.160156 C 216.285156 86.402344 213.703125 84.871094 212.953125 86.644531 "/>
<path style=" stroke:none;fill-rule:nonzero;fill:rgb(100%,100%,100%);fill-opacity:1;" d="M 235.136719 104.59375 C 236.351563 107.441406 239.933594 112.679688 238.550781 115.824219 C 237.441406 118.351563 233.410156 120.222656 231.015625 121.316406 C 231.621094 122.101563 232.230469 122.886719 232.835938 123.671875 C 241.75 116.757813 249.453125 108.644531 255.957031 99.433594 C 257.007813 97.941406 254.820313 96.609375 253.601563 97.613281 C 249.050781 101.363281 243.617188 102.792969 237.8125 102.078125 C 237.019531 101.980469 236.296875 102.84375 236.3125 103.578125 C 236.371094 106.046875 237 107.628906 238.511719 109.558594 C 239.105469 110.316406 240.449219 110.027344 240.867188 109.257813 C 241.675781 107.769531 241.5625 106.582031 240.308594 105.394531 C 239.4375 104.570313 237.621094 105.089844 237.746094 106.453125 C 237.890625 108.027344 238.242188 108.953125 239.445313 110.054688 C 240.09375 110.648438 241.378906 110.675781 241.800781 109.753906 C 242.628906 107.953125 242.679688 106.78125 241.535156 105.113281 C 240.847656 104.117188 239.640625 104.191406 238.941406 105.113281 C 237.386719 107.164063 238.054688 109.425781 240.058594 110.824219 C 240.734375 111.300781 241.707031 110.929688 242.109375 110.289063 C 243.335938 108.328125 242.816406 106.433594 240.867188 105.234375 C 239.808594 104.589844 238.730469 105.460938 238.609375 106.53125 C 238.40625 108.335938 238.277344 111.398438 240.535156 111.972656 C 242.253906 112.410156 243.414063 110.855469 243.765625 109.28125 C 244.539063 105.800781 239.402344 103.328125 238.367188 107.027344 C 237.328125 110.753906 243.808594 111.550781 243.863281 107.214844 C 243.914063 102.992188 238.714844 103.992188 238.972656 108.320313 C 239.046875 109.507813 240.179688 110.117188 241.230469 109.613281 C 243.421875 108.570313 244.464844 107.203125 244.871094 104.808594 C 245.0625 103.683594 244.214844 102.679688 243.027344 102.964844 C 240.988281 103.449219 239.867188 104.886719 240.09375 107.003906 C 240.214844 108.132813 241.273438 108.878906 242.351563 108.300781 C 244.113281 107.351563 244.828125 106.410156 245.4375 104.527344 C 245.839844 103.28125 244.324219 102.164063 243.234375 102.835938 C 241.3125 104.011719 240.441406 105.496094 240.65625 107.796875 C 240.761719 108.964844 241.835938 109.617188 242.910156 109.089844 C 245.324219 107.90625 246.417969 106.070313 246.710938 103.449219 C 246.839844 102.261719 245.355469 101.65625 244.453125 102.15625 C 242.324219 103.328125 241.476563 104.808594 241.386719 107.21875 C 241.339844 108.445313 242.671875 108.96875 243.644531 108.515625 C 245.425781 107.675781 246.488281 106.621094 247.292969 104.78125 C 247.886719 103.421875 246.660156 102.019531 245.238281 102.730469 C 242.84375 103.925781 241.816406 105.941406 242.902344 108.425781 C 243.117188 108.921875 243.707031 109.128906 244.195313 109.164063 C 246.863281 109.382813 248.207031 106.464844 248.707031 104.261719 C 248.957031 103.171875 248.003906 102.09375 246.863281 102.417969 C 243.753906 103.300781 242.011719 105.609375 242.144531 108.859375 C 242.195313 110.027344 243.839844 111.007813 244.707031 109.921875 C 245.671875 108.710938 246.414063 107.589844 247.078125 106.179688 C 247.6875 104.890625 246.40625 103.308594 245.027344 104.125 C 242.351563 105.714844 240.710938 107.828125 239.796875 110.792969 C 239.328125 112.324219 241.234375 113.164063 242.304688 112.253906 C 245.339844 109.664063 247.1875 106.527344 247.988281 102.621094 C 248.242188 101.394531 246.964844 100.207031 245.785156 100.925781 C 243.65625 102.230469 242.585938 103.585938 241.652344 105.886719 C 240.957031 107.597656 243.46875 108.269531 244.394531 107.042969 C 245.46875 105.621094 246.433594 104.207031 247.367188 102.691406 C 247.945313 101.753906 247.207031 100.371094 246.074219 100.433594 C 244.894531 100.496094 244.550781 100.578125 243.523438 101.164063 C 244.207031 101.847656 244.890625 102.53125 245.574219 103.214844 C 245.746094 102.902344 245.921875 102.589844 246.09375 102.277344 C 246.863281 100.882813 245.359375 99.621094 244.042969 100.226563 C 242.910156 100.742188 242.761719 100.929688 242.136719 102 C 241.152344 103.667969 243.746094 105.179688 244.726563 103.515625 C 245.003906 103.28125 245.277344 103.046875 245.554688 102.816406 C 244.871094 102.132813 244.1875 101.445313 243.503906 100.761719 C 243.328125 101.078125 243.15625 101.390625 242.984375 101.703125 C 242.257813 103.011719 243.714844 104.507813 245.035156 103.753906 C 245.382813 103.648438 245.726563 103.539063 246.074219 103.433594 C 245.640625 102.679688 245.210938 101.925781 244.777344 101.175781 C 243.84375 102.691406 242.875 104.105469 241.804688 105.527344 C 242.71875 105.914063 243.632813 106.300781 244.542969 106.683594 C 245.464844 105.628906 246.382813 104.574219 247.300781 103.519531 C 246.566406 102.953125 245.832031 102.390625 245.097656 101.824219 C 244.402344 105.214844 242.820313 107.886719 240.183594 110.132813 C 241.019531 110.617188 241.855469 111.105469 242.691406 111.589844 C 243.386719 109.324219 244.503906 107.925781 246.542969 106.714844 C 245.855469 106.03125 245.171875 105.347656 244.488281 104.664063 C 244.03125 105.8125 243.398438 106.855469 242.585938 107.800781 C 243.4375 108.152344 244.292969 108.507813 245.144531 108.859375 C 245.984375 107.675781 246.820313 106.492188 247.660156 105.3125 L 245.816406 103.464844 C 246.128906 104.085938 246.441406 104.703125 246.753906 105.320313 C 246.070313 104.636719 245.386719 103.953125 244.703125 103.269531 C 244.347656 104.550781 243.488281 105.433594 242.128906 105.925781 C 242.882813 106.355469 243.632813 106.789063 244.386719 107.21875 C 244.910156 106.394531 245.4375 105.570313 245.964844 104.746094 C 245.214844 104.3125 244.460938 103.882813 243.710938 103.449219 C 242.9375 104.464844 242.167969 105.484375 241.398438 106.5 C 242.148438 106.933594 242.902344 107.363281 243.65625 107.796875 C 244.019531 107.003906 244.382813 106.214844 244.746094 105.425781 C 244.011719 104.859375 243.277344 104.296875 242.542969 103.730469 C 241.976563 104.390625 241.40625 105.050781 240.835938 105.710938 C 241.589844 106.140625 242.339844 106.570313 243.09375 107.003906 C 243.335938 106.621094 243.578125 106.238281 243.824219 105.855469 C 243.210938 105.242188 242.59375 104.628906 241.980469 104.011719 L 239.71875 107.023438 C 240.46875 107.457031 241.222656 107.886719 241.972656 108.320313 C 241.851563 107.722656 241.730469 107.128906 241.609375 106.53125 C 240.855469 106.964844 240.105469 107.394531 239.351563 107.828125 C 239.40625 108.144531 239.464844 108.460938 239.519531 108.773438 C 240.203125 108.59375 240.886719 108.414063 241.570313 108.234375 C 241.558594 107.699219 241.546875 107.164063 241.535156 106.628906 L 238.941406 106.628906 C 239.03125 107.164063 239.121094 107.703125 239.210938 108.238281 C 239.996094 108.136719 240.78125 108.035156 241.566406 107.933594 C 241.292969 107.441406 241.019531 106.945313 240.746094 106.453125 C 239.894531 106.808594 239.039063 107.160156 238.1875 107.515625 C 238.21875 107.589844 238.246094 107.664063 238.277344 107.742188 C 239.0625 107.640625 239.847656 107.539063 240.632813 107.4375 C 240.195313 106.152344 239.753906 104.867188 239.3125 103.578125 L 237.8125 105.078125 C 244.496094 105.902344 250.550781 103.992188 255.722656 99.734375 C 254.9375 99.128906 254.152344 98.523438 253.367188 97.917969 C 247.007813 106.921875 239.417969 114.800781 230.714844 121.550781 C 229.269531 122.667969 231.109375 124.554688 232.53125 123.90625 C 235.660156 122.476563 241.257813 119.351563 242.21875 115.671875 C 243.148438 112.113281 239.085938 106.257813 237.726563 103.078125 C 236.96875 101.308594 234.386719 102.835938 235.136719 104.59375 "/>
<path style=" stroke:none;fill-rule:nonzero;fill:rgb(100%,100%,100%);fill-opacity:1;" d="M 242.894531 80.773438 C 247.773438 75.546875 254.644531 80.902344 260.40625 78.347656 C 265.800781 75.953125 270.296875 71.796875 275.828125 69.410156 C 277.597656 68.648438 276.070313 66.0625 274.316406 66.820313 C 271.320313 68.109375 268.425781 69.566406 265.671875 71.324219 C 261.890625 73.738281 259.445313 76.363281 254.5625 75.984375 C 249.292969 75.578125 244.828125 74.304688 240.773438 78.648438 C 239.457031 80.0625 241.574219 82.1875 242.894531 80.773438 "/>
<path style=" stroke:none;fill-rule:nonzero;fill:rgb(100%,100%,100%);fill-opacity:1;" d="M 290.335938 77.144531 C 308.789063 100.882813 312.578125 131.757813 310.066406 160.902344 C 309.425781 168.359375 308.394531 175.773438 307.152344 183.152344 C 305.855469 190.835938 303.664063 198.683594 303.132813 206.460938 C 302.769531 211.816406 306.195313 214.777344 309.917969 218.148438 C 314.871094 222.632813 320.070313 226.851563 325.46875 230.796875 C 334.835938 237.644531 345.582031 245.148438 357.808594 243.128906 C 369.8125 241.144531 379.683594 232.074219 390.398438 226.929688 C 401.941406 221.386719 409.863281 211 415.613281 199.683594 C 418.367188 194.261719 420.550781 188.535156 422.894531 182.925781 C 425.359375 177.03125 428.714844 170.90625 429.070313 164.40625 C 429.441406 157.644531 426.433594 152.121094 422.210938 147.105469 C 417.15625 141.109375 413.855469 135.089844 412.632813 127.253906 C 411.496094 119.972656 411.878906 112.527344 412.164063 105.199219 C 412.515625 96.21875 412.875 87.234375 413.230469 78.253906 C 413.308594 76.324219 410.308594 76.328125 410.230469 78.253906 C 409.707031 91.527344 408.589844 104.929688 408.910156 118.21875 C 409.160156 128.695313 411.265625 138.601563 418.050781 146.851563 C 423.171875 153.078125 427.460938 158.734375 425.652344 167.332031 C 424.332031 173.617188 421.03125 179.664063 418.570313 185.554688 C 413.59375 197.457031 407.582031 210.863281 397.433594 219.386719 C 392.480469 223.546875 385.808594 225.59375 380.277344 228.910156 C 375.320313 231.878906 370.550781 235.214844 365.28125 237.621094 C 351.429688 243.957031 339.765625 237.355469 328.433594 229.253906 C 322.71875 225.167969 317.246094 220.742188 312.039063 216.023438 C 308.285156 212.625 305.972656 210.953125 306.324219 205.066406 C 306.554688 201.234375 307.648438 197.300781 308.339844 193.515625 C 310.761719 180.203125 312.914063 166.847656 313.585938 153.3125 C 314.953125 125.683594 309.757813 97.277344 292.457031 75.023438 C 291.273438 73.5 289.164063 75.636719 290.335938 77.144531 "/>
<path style=" stroke:none;fill-rule:nonzero;fill:rgb(100%,100%,100%);fill-opacity:1;" d="M 371.136719 170.515625 C 382.222656 161.910156 393.257813 152.859375 399.683594 140.09375 C 400.546875 138.371094 397.960938 136.851563 397.089844 138.578125 C 390.78125 151.113281 379.894531 159.949219 369.015625 168.394531 C 367.492188 169.574219 369.628906 171.683594 371.136719 170.515625 "/>
<path style=" stroke:none;fill-rule:nonzero;fill:rgb(100%,100%,100%);fill-opacity:1;" d="M 275.433594 108.550781 C 283.171875 102.496094 296.347656 103.164063 305.632813 103.671875 C 307.5625 103.777344 307.558594 100.777344 305.632813 100.671875 C 295.328125 100.109375 281.878906 99.730469 273.3125 106.429688 C 271.789063 107.617188 273.929688 109.726563 275.433594 108.550781 "/>
<path style=" stroke:none;fill-rule:nonzero;fill:rgb(100%,100%,100%);fill-opacity:1;" d="M 253.789063 216.273438 C 270.3125 221.421875 289.769531 215.734375 305.4375 209.957031 C 307.234375 209.292969 306.457031 206.394531 304.640625 207.0625 C 289.421875 212.675781 270.601563 218.367188 254.585938 213.378906 C 252.738281 212.804688 251.949219 215.699219 253.789063 216.273438 "/>
<path style=" stroke:none;fill-rule:nonzero;fill:rgb(100%,100%,100%);fill-opacity:1;" d="M 363.03125 242.265625 C 362.15625 249.675781 361.285156 257.089844 360.410156 264.5 C 360.1875 266.414063 363.1875 266.398438 363.410156 264.5 C 364.285156 257.089844 365.15625 249.675781 366.03125 242.265625 C 366.257813 240.351563 363.257813 240.367188 363.03125 242.265625 "/>
<path style=" stroke:none;fill-rule:nonzero;fill:rgb(100%,100%,100%);fill-opacity:1;" d="M 188.386719 208.976563 C 191.558594 210.089844 194.644531 211.453125 197.601563 213.058594 C 197.804688 210.246094 197.640625 207.410156 197.109375 204.640625 C 197.0625 204.40625 197 204.148438 196.800781 204.011719 C 196.601563 203.875 196.332031 203.914063 196.09375 203.96875 C 192.855469 204.6875 189.960938 206.820313 188.316406 209.699219 "/>
<path style=" stroke:none;fill-rule:nonzero;fill:rgb(100%,100%,100%);fill-opacity:1;" d="M 205.167969 202.195313 C 206.304688 202.902344 207.4375 203.613281 208.574219 204.320313 C 208.75 204.429688 208.976563 204.539063 209.148438 204.429688 C 209.296875 204.335938 209.320313 204.140625 209.328125 203.96875 C 209.417969 202.554688 209.503906 201.144531 209.589844 199.730469 C 209.621094 199.195313 209.589844 198.53125 209.109375 198.289063 C 208.664063 198.066406 208.144531 198.359375 207.738281 198.644531 C 206.808594 199.296875 205.878906 199.945313 204.945313 200.59375 "/>
<path style=" stroke:none;fill-rule:nonzero;fill:rgb(100%,100%,100%);fill-opacity:1;" d="M 214.886719 196.484375 C 217.054688 197.730469 219.226563 198.972656 221.394531 200.21875 C 221.636719 200.355469 221.933594 200.492188 222.171875 200.355469 C 222.347656 200.257813 222.421875 200.050781 222.480469 199.859375 C 223.046875 198.0625 223.613281 196.265625 224.179688 194.46875 C 224.277344 194.164063 224.363281 193.792969 224.152344 193.550781 C 223.929688 193.300781 223.53125 193.351563 223.203125 193.421875 C 220.078125 194.105469 216.953125 194.789063 213.832031 195.472656 "/>
<path style=" stroke:none;fill-rule:nonzero;fill:rgb(100%,100%,100%);fill-opacity:1;" d="M 226.902344 192.476563 C 228.273438 193.976563 229.789063 195.339844 231.417969 196.550781 C 231.753906 196.796875 232.136719 197.050781 232.550781 196.992188 C 233.226563 196.898438 233.488281 196.089844 233.839844 195.503906 C 234.71875 194.007813 236.925781 193.1875 236.871094 191.453125 C 236.867188 191.335938 236.84375 191.199219 236.742188 191.136719 C 236.675781 191.09375 236.59375 191.09375 236.519531 191.09375 C 235.382813 191.105469 234.246094 191.121094 233.113281 191.132813 C 231.339844 191.148438 229.257813 191.335938 228.332031 192.84375 "/>
<path style=" stroke:none;fill-rule:nonzero;fill:rgb(0%,0%,0%);fill-opacity:1;" d="M 108.503906 250.621094 L 92.378906 244.644531 L 96.859375 242.746094 L 107.753906 245.445313 Z M 108.503906 250.621094 "/>
<path style=" stroke:none;fill-rule:nonzero;fill:rgb(0%,0%,0%);fill-opacity:1;" d="M 110.253906 222.167969 L 129.316406 246.65625 C 129.316406 246.65625 140.6875 224.082031 110.253906 222.167969 "/>
<path style=" stroke:none;fill-rule:nonzero;fill:rgb(0%,0%,0%);fill-opacity:1;" d="M 439.363281 250.566406 L 456.304688 227.933594 C 456.304688 227.933594 433.398438 229.992188 439.363281 250.566406 "/>
<path style=" stroke:none;fill-rule:nonzero;fill:rgb(0%,0%,0%);fill-opacity:1;" d="M 470.449219 244.328125 C 470.363281 238.425781 475.691406 233.5625 482.351563 233.460938 C 489.011719 233.363281 494.484375 238.066406 494.570313 243.96875 C 494.660156 249.871094 489.328125 254.734375 482.667969 254.835938 C 476.007813 254.933594 470.535156 250.230469 470.449219 244.328125 "/>
<path style="fill:none;stroke-width:10;stroke-linecap:butt;stroke-linejoin:miter;stroke:rgb(0%,0%,0%);stroke-opacity:1;stroke-miterlimit:10;" d="M 4704.492188 2452.91875 C 4703.632813 2511.942187 4756.914063 2560.575 4823.515625 2561.590625 C 4890.117188 2562.567187 4944.84375 2515.535937 4945.703125 2456.5125 C 4946.601563 2397.489062 4893.28125 2348.85625 4826.679688 2347.840625 C 4760.078125 2346.864062 4705.351563 2393.895312 4704.492188 2452.91875 Z M 4704.492188 2452.91875 " transform="matrix(0.1,0,0,-0.1,0,489.62)"/>
<path style=" stroke:none;fill-rule:nonzero;fill:rgb(0%,0%,0%);fill-opacity:1;" d="M 87.777344 244.128906 C 87.726563 240.566406 89.867188 237.644531 92.558594 237.605469 C 95.25 237.566406 97.476563 240.421875 97.527344 243.984375 C 97.582031 247.550781 95.441406 250.46875 92.75 250.507813 C 90.058594 250.550781 87.832031 247.691406 87.777344 244.128906 "/>
<path style="fill:none;stroke-width:10;stroke-linecap:butt;stroke-linejoin:miter;stroke:rgb(0%,0%,0%);stroke-opacity:1;stroke-miterlimit:10;" d="M 877.773438 2454.910937 C 877.265625 2490.535937 898.671875 2519.754687 925.585938 2520.145312 C 952.5 2520.535937 974.765625 2491.98125 975.273438 2456.35625 C 975.820313 2420.692187 954.414063 2391.5125 927.5 2391.121875 C 900.585938 2390.692187 878.320313 2419.285937 877.773438 2454.910937 Z M 877.773438 2454.910937 " transform="matrix(0.1,0,0,-0.1,0,489.62)"/>
<path style=" stroke:none;fill-rule:nonzero;fill:rgb(100%,100%,0%);fill-opacity:1;" d="M 87.167969 248.394531 C 87.167969 248.394531 255.777344 310.226563 485.582031 250.425781 L 519.425781 329.546875 C 519.425781 329.546875 257.746094 398.101563 59.257813 321.699219 "/>
<g clip-path="url(#clip2)" clip-rule="nonzero">
<path style="fill:none;stroke-width:80;stroke-linecap:butt;stroke-linejoin:miter;stroke:rgb(0%,0%,0%);stroke-opacity:1;stroke-miterlimit:10;" d="M 871.679688 2412.254687 C 871.679688 2412.254687 2557.773438 1793.934375 4855.820313 2391.942187 L 5194.257813 1600.73125 C 5194.257813 1600.73125 2577.460938 915.184375 592.578125 1679.207812 Z M 871.679688 2412.254687 " transform="matrix(0.1,0,0,-0.1,0,489.62)"/>
</g>
<path style=" stroke:none;fill-rule:nonzero;fill:rgb(100%,100%,0%);fill-opacity:1;" d="M 118.378906 250.484375 L 95.410156 244.574219 C 95.410156 244.574219 110.035156 235.855469 123.0625 237.664063 "/>
<path style="fill:none;stroke-width:50;stroke-linecap:round;stroke-linejoin:miter;stroke:rgb(0%,0%,0%);stroke-opacity:1;stroke-miterlimit:10;" d="M 1183.789063 2391.35625 L 954.101563 2450.457812 C 954.101563 2450.457812 1100.351563 2537.645312 1230.625 2519.559375 Z M 1183.789063 2391.35625 " transform="matrix(0.1,0,0,-0.1,0,489.62)"/>
<path style=" stroke:none;fill-rule:nonzero;fill:rgb(100%,100%,0%);fill-opacity:1;" d="M 447.445313 252.605469 L 447.238281 238.609375 C 447.238281 238.609375 467.640625 240.429688 473.742188 247.214844 "/>
<path style="fill:none;stroke-width:50;stroke-linecap:butt;stroke-linejoin:miter;stroke:rgb(0%,0%,0%);stroke-opacity:1;stroke-miterlimit:10;" d="M 4474.453125 2370.145312 L 4472.382813 2510.10625 C 4472.382813 2510.10625 4676.40625 2491.903125 4737.421875 2424.051562 Z M 4474.453125 2370.145312 " transform="matrix(0.1,0,0,-0.1,0,489.62)"/>
<path style=" stroke:none;fill-rule:nonzero;fill:rgb(100%,100%,0%);fill-opacity:1;" d="M 66.421875 287.757813 L 11.929688 271.820313 L 60.632813 251.339844 L 42.300781 212.097656 L 111.535156 232.199219 C 111.535156 232.199219 95.390625 234.824219 81.566406 246.777344 "/>
<path style="fill:none;stroke-width:80;stroke-linecap:butt;stroke-linejoin:miter;stroke:rgb(0%,0%,0%);stroke-opacity:1;stroke-miterlimit:10;" d="M 664.21875 2018.621875 L 119.296875 2177.996875 L 606.328125 2382.801562 L 423.007813 2775.223437 L 1115.351563 2574.207812 C 1115.351563 2574.207812 953.90625 2547.957812 815.664063 2428.426562 Z M 664.21875 2018.621875 " transform="matrix(0.1,0,0,-0.1,0,489.62)"/>
<path style=" stroke:none;fill-rule:nonzero;fill:rgb(100%,100%,0%);fill-opacity:1;" d="M 459.789063 230.691406 L 527.625 213.664063 L 510.9375 251.664063 L 560.535156 274.683594 L 510.253906 289.929688 L 490.664063 250.351563 C 490.664063 250.351563 489.320313 236.761719 459.871094 232.289063 C 458.988281 232.15625 458.925781 230.90625 459.789063 230.691406 "/>
<g clip-path="url(#clip3)" clip-rule="nonzero">
<path style="fill:none;stroke-width:70;stroke-linecap:butt;stroke-linejoin:miter;stroke:rgb(0%,0%,0%);stroke-opacity:1;stroke-miterlimit:10;" d="M 4597.890625 2589.285937 L 5276.25 2759.559375 L 5109.375 2379.559375 L 5605.351563 2149.364062 L 5102.539063 1996.903125 L 4906.640625 2392.684375 C 4906.640625 2392.684375 4893.203125 2528.582812 4598.710938 2573.309375 C 4589.882813 2574.6375 4589.257813 2587.1375 4597.890625 2589.285937 Z M 4597.890625 2589.285937 " transform="matrix(0.1,0,0,-0.1,0,489.62)"/>
</g>
<path style=" stroke:none;fill-rule:nonzero;fill:rgb(0%,0%,0%);fill-opacity:1;" d="M 101.34375 299.449219 C 101.867188 299.777344 102.839844 300.078125 103.722656 300.351563 C 110.117188 302.386719 116.242188 300.058594 120.25 292.480469 C 123.722656 286.019531 121.761719 281.515625 115.800781 279.726563 C 114.257813 279.265625 113.183594 279.101563 112.523438 279.058594 Z M 108.316406 272.128906 C 111.054688 272.480469 114.457031 273.234375 117.925781 274.269531 C 123.71875 275.992188 126.9375 278.144531 128.734375 281.242188 C 130.707031 284.570313 130.753906 288.992188 127.886719 294.53125 C 124.730469 300.625 120.316406 304.203125 115.878906 305.902344 C 111.039063 307.71875 105.246094 307.496094 99.078125 305.570313 C 95.398438 304.421875 92.933594 303.371094 91.304688 302.582031 "/>
<path style="fill:none;stroke-width:10;stroke-linecap:butt;stroke-linejoin:miter;stroke:rgb(0%,0%,0%);stroke-opacity:1;stroke-miterlimit:10;" d="M 1013.4375 1901.707812 C 1018.671875 1898.426562 1028.398438 1895.41875 1037.226563 1892.684375 C 1101.171875 1872.332812 1162.421875 1895.614062 1202.5 1971.395312 C 1237.226563 2036.004687 1217.617188 2081.04375 1158.007813 2098.934375 C 1142.578125 2103.54375 1131.835938 2105.184375 1125.234375 2105.614062 Z M 1083.164063 2174.910937 C 1110.546875 2171.395312 1144.570313 2163.85625 1179.257813 2153.504687 C 1237.1875 2136.278125 1269.375 2114.754687 1287.34375 2083.778125 C 1307.070313 2050.496875 1307.539063 2006.278125 1278.867188 1950.8875 C 1247.304688 1889.95 1203.164063 1854.16875 1158.789063 1837.176562 C 1110.390625 1819.0125 1052.460938 1821.239062 990.78125 1840.496875 C 953.984375 1851.98125 929.335938 1862.489062 913.046875 1870.379687 Z M 1083.164063 2174.910937 " transform="matrix(0.1,0,0,-0.1,0,489.62)"/>
<path style="fill-rule:nonzero;fill:rgb(0%,0%,0%);fill-opacity:1;stroke-width:10;stroke-linecap:butt;stroke-linejoin:miter;stroke:rgb(0%,0%,0%);stroke-opacity:1;stroke-miterlimit:10;" d="M 1470.820313 2071.35625 L 1324.960938 1748.465625 L 1250.507813 1767.91875 L 1398.984375 2089.285937 Z M 1470.820313 2071.35625 " transform="matrix(0.1,0,0,-0.1,0,489.62)"/>
<path style=" stroke:none;fill-rule:nonzero;fill:rgb(0%,0%,0%);fill-opacity:1;" d="M 161.703125 305.929688 L 162.285156 298.511719 C 162.433594 296.460938 162.765625 293.9375 163.007813 291.929688 L 162.910156 291.90625 C 161.691406 293.710938 160.265625 296.050781 159.003906 297.816406 L 154.347656 304.355469 Z M 151.070313 309.75 L 145.28125 317.921875 L 137.402344 316.199219 L 160.488281 285.589844 L 170.148438 287.609375 L 168.261719 322.945313 L 159.984375 321.136719 L 160.660156 311.820313 "/>
<path style="fill:none;stroke-width:10;stroke-linecap:butt;stroke-linejoin:miter;stroke:rgb(0%,0%,0%);stroke-opacity:1;stroke-miterlimit:10;" d="M 1617.03125 1836.903125 L 1622.851563 1911.082812 C 1624.335938 1931.590625 1627.65625 1956.825 1630.078125 1976.903125 L 1629.101563 1977.1375 C 1616.914063 1959.090625 1602.65625 1935.692187 1590.039063 1918.035937 L 1543.476563 1852.645312 Z M 1510.703125 1798.7 L 1452.8125 1716.98125 L 1374.023438 1734.207812 L 1604.882813 2040.301562 L 1701.484375 2020.10625 L 1682.617188 1666.746875 L 1599.84375 1684.832812 L 1606.601563 1777.996875 Z M 1510.703125 1798.7 " transform="matrix(0.1,0,0,-0.1,0,489.62)"/>
<path style=" stroke:none;fill-rule:nonzero;fill:rgb(0%,0%,0%);fill-opacity:1;" d="M 207.386719 315.394531 C 208.28125 311.265625 209.382813 306.324219 210.621094 301.472656 L 210.472656 301.449219 C 208.3125 305.542969 205.648438 310.128906 203.277344 313.921875 L 195.460938 326.839844 L 189.265625 325.878906 L 189.261719 311.886719 C 189.25 307.742188 189.421875 302.796875 189.835938 298.351563 L 189.734375 298.335938 C 188.269531 302.777344 186.652344 307.925781 185.199219 312.109375 L 180.847656 325.167969 L 173.546875 324.03125 L 185.566406 290.699219 L 195.679688 292.207031 L 195.976563 303.683594 C 195.984375 307.726563 195.914063 312.113281 195.601563 316.242188 L 195.753906 316.269531 C 197.792969 312.449219 200.164063 308.152344 202.277344 304.582031 L 208.789063 294.15625 L 218.792969 295.644531 L 212.3125 330.058594 L 204.503906 328.84375 "/>
<path style="fill:none;stroke-width:10;stroke-linecap:butt;stroke-linejoin:miter;stroke:rgb(0%,0%,0%);stroke-opacity:1;stroke-miterlimit:10;" d="M 2073.867188 1742.254687 C 2082.8125 1783.54375 2093.828125 1832.957812 2106.210938 1881.473437 L 2104.726563 1881.707812 C 2083.125 1840.770312 2056.484375 1794.910937 2032.773438 1756.98125 L 1954.609375 1627.801562 L 1892.65625 1637.410937 L 1892.617188 1777.332812 C 1892.5 1818.778125 1894.21875 1868.23125 1898.359375 1912.684375 L 1897.34375 1912.840625 C 1882.695313 1868.426562 1866.523438 1816.942187 1851.992188 1775.10625 L 1808.476563 1644.520312 L 1735.46875 1655.8875 L 1855.664063 1989.207812 L 1956.796875 1974.129687 L 1959.765625 1859.364062 C 1959.84375 1818.934375 1959.140625 1775.067187 1956.015625 1733.778125 L 1957.539063 1733.504687 C 1977.929688 1771.707812 2001.640625 1814.676562 2022.773438 1850.379687 L 2087.890625 1954.6375 L 2187.929688 1939.754687 L 2123.125 1595.614062 L 2045.039063 1607.7625 Z M 2073.867188 1742.254687 " transform="matrix(0.1,0,0,-0.1,0,489.62)"/>
<path style=" stroke:none;fill-rule:nonzero;fill:rgb(0%,0%,0%);fill-opacity:1;" d="M 229.894531 314.019531 C 228.773438 320.835938 231.257813 326.007813 236.667969 326.511719 C 242.140625 327.019531 246.015625 322.160156 246.988281 315.378906 C 247.875 309.210938 245.625 303.714844 240.203125 303.222656 C 234.890625 302.746094 230.992188 307.371094 229.894531 314.019531 M 255.472656 315.890625 C 253.941406 327.417969 245.800781 333.894531 235.25 332.910156 C 224.5625 331.90625 219.722656 323.339844 221.464844 313.40625 C 223.253906 303.210938 231.148438 296.347656 241.332031 297.257813 C 251.949219 298.210938 256.730469 306.4375 255.472656 315.890625 "/>
<path style="fill:none;stroke-width:10;stroke-linecap:butt;stroke-linejoin:miter;stroke:rgb(0%,0%,0%);stroke-opacity:1;stroke-miterlimit:10;" d="M 2298.945313 1756.004687 C 2287.734375 1687.840625 2312.578125 1636.121875 2366.679688 1631.082812 C 2421.40625 1626.004687 2460.15625 1674.598437 2469.882813 1742.410937 C 2478.75 1804.090625 2456.25 1859.051562 2402.03125 1863.973437 C 2348.90625 1868.739062 2309.921875 1822.489062 2298.945313 1756.004687 Z M 2554.726563 1737.29375 C 2539.414063 1622.020312 2458.007813 1557.254687 2352.5 1567.098437 C 2245.625 1577.1375 2197.226563 1662.801562 2214.648438 1762.1375 C 2232.539063 1864.090625 2311.484375 1932.723437 2413.320313 1923.621875 C 2519.492188 1914.090625 2567.304688 1831.825 2554.726563 1737.29375 Z M 2554.726563 1737.29375 " transform="matrix(0.1,0,0,-0.1,0,489.62)"/>
<path style=" stroke:none;fill-rule:nonzero;fill:rgb(0%,0%,0%);fill-opacity:1;" d="M 259.863281 334.359375 L 262.3125 299.507813 L 271.527344 299.851563 L 278.164063 312.570313 C 280.101563 316.300781 282.023438 320.746094 283.449219 324.796875 L 283.609375 324.800781 C 283.277344 320.113281 283.320313 315.390625 283.539063 310.21875 L 283.964844 300.320313 L 291.226563 300.589844 L 290.050781 335.542969 L 281.382813 335.203125 L 274.332031 321.078125 C 272.417969 317.25 270.351563 312.683594 268.863281 308.59375 L 268.703125 308.636719 C 268.632813 313.183594 268.441406 318.085938 268.089844 323.832031 L 267.425781 334.65625 "/>
<path style="fill:none;stroke-width:10;stroke-linecap:butt;stroke-linejoin:miter;stroke:rgb(0%,0%,0%);stroke-opacity:1;stroke-miterlimit:10;" d="M 2598.632813 1552.60625 L 2623.125 1901.121875 L 2715.273438 1897.684375 L 2781.640625 1770.496875 C 2801.015625 1733.192187 2820.234375 1688.739062 2834.492188 1648.23125 L 2836.09375 1648.192187 C 2832.773438 1695.067187 2833.203125 1742.29375 2835.390625 1794.0125 L 2839.648438 1892.996875 L 2912.265625 1890.301562 L 2900.507813 1540.770312 L 2813.828125 1544.16875 L 2743.320313 1685.41875 C 2724.179688 1723.7 2703.515625 1769.364062 2688.632813 1810.2625 L 2687.03125 1809.832812 C 2686.328125 1764.364062 2684.414063 1715.340625 2680.898438 1657.879687 L 2674.257813 1549.6375 Z M 2598.632813 1552.60625 " transform="matrix(0.1,0,0,-0.1,0,489.62)"/>
<path style=" stroke:none;fill-rule:nonzero;fill:rgb(0%,0%,0%);fill-opacity:1;" d="M 306.683594 329.351563 C 307.390625 329.5 308.519531 329.484375 309.539063 329.46875 C 316.964844 329.417969 321.5625 325.3125 321.070313 316.890625 C 320.703125 309.710938 316.199219 306.023438 309.355469 306.117188 C 307.578125 306.144531 306.433594 306.308594 305.761719 306.472656 Z M 297.597656 301.121094 C 300.492188 300.632813 304.269531 300.332031 308.265625 300.277344 C 314.902344 300.1875 319.269531 301.269531 322.796875 303.671875 C 326.617188 306.230469 329.203125 310.40625 329.628906 316.511719 C 330.09375 323.238281 327.898438 327.980469 324.589844 330.964844 C 320.949219 334.195313 315.183594 335.792969 308.03125 335.898438 C 303.75 335.960938 300.703125 335.730469 298.636719 335.488281 "/>
<path style="fill:none;stroke-width:10;stroke-linecap:butt;stroke-linejoin:miter;stroke:rgb(0%,0%,0%);stroke-opacity:1;stroke-miterlimit:10;" d="M 3066.835938 1602.684375 C 3073.90625 1601.2 3085.195313 1601.35625 3095.390625 1601.5125 C 3169.648438 1602.020312 3215.625 1643.075 3210.703125 1727.29375 C 3207.03125 1799.090625 3161.992188 1835.965625 3093.554688 1835.028125 C 3075.78125 1834.754687 3064.335938 1833.114062 3057.617188 1831.473437 Z M 2975.976563 1884.989062 C 3004.921875 1889.871875 3042.695313 1892.879687 3082.65625 1893.426562 C 3149.023438 1894.325 3192.695313 1883.504687 3227.96875 1859.48125 C 3266.171875 1833.895312 3292.03125 1792.1375 3296.289063 1731.082812 C 3300.9375 1663.817187 3278.984375 1616.395312 3245.898438 1586.551562 C 3209.492188 1554.246875 3151.835938 1538.270312 3080.3125 1537.215625 C 3037.5 1536.590625 3007.03125 1538.895312 2986.367188 1541.317187 Z M 2975.976563 1884.989062 " transform="matrix(0.1,0,0,-0.1,0,489.62)"/>
<path style=" stroke:none;fill-rule:nonzero;fill:rgb(0%,0%,0%);fill-opacity:1;" d="M 357.738281 327.277344 C 358.457031 327.378906 359.570313 327.28125 360.578125 327.195313 C 367.902344 326.613281 371.894531 322.207031 370.273438 313.878906 C 368.941406 306.769531 364.003906 303.421875 357.253906 303.988281 C 355.5 304.136719 354.390625 304.382813 353.746094 304.589844 Z M 344.941406 299.832031 C 347.742188 299.148438 351.441406 298.589844 355.386719 298.257813 C 361.9375 297.710938 366.394531 298.484375 370.199219 300.628906 C 374.308594 302.90625 377.421875 306.871094 378.65625 312.902344 C 380.019531 319.546875 378.492188 324.40625 375.636719 327.605469 C 372.480469 331.074219 367.003906 333.074219 359.953125 333.691406 C 355.726563 334.0625 352.683594 334.054688 350.605469 333.964844 "/>
<path style="fill:none;stroke-width:10;stroke-linecap:butt;stroke-linejoin:miter;stroke:rgb(0%,0%,0%);stroke-opacity:1;stroke-miterlimit:10;" d="M 3577.382813 1623.426562 C 3584.570313 1622.410937 3595.703125 1623.3875 3605.78125 1624.246875 C 3679.023438 1630.067187 3718.945313 1674.129687 3702.734375 1757.410937 C 3689.414063 1828.504687 3640.039063 1861.98125 3572.539063 1856.317187 C 3555 1854.832812 3543.90625 1852.371875 3537.460938 1850.301562 Z M 3449.414063 1897.879687 C 3477.421875 1904.715625 3514.414063 1910.301562 3553.867188 1913.621875 C 3619.375 1919.090625 3663.945313 1911.35625 3701.992188 1889.910937 C 3743.085938 1867.1375 3774.21875 1827.489062 3786.5625 1767.176562 C 3800.195313 1700.73125 3784.921875 1652.1375 3756.367188 1620.145312 C 3724.804688 1585.457812 3670.039063 1565.457812 3599.53125 1559.285937 C 3557.265625 1555.575 3526.835938 1555.653125 3506.054688 1556.551562 Z M 3449.414063 1897.879687 " transform="matrix(0.1,0,0,-0.1,0,489.62)"/>
<path style=" stroke:none;fill-rule:nonzero;fill:rgb(0%,0%,0%);fill-opacity:1;" d="M 391.117188 312.21875 C 392.996094 318.960938 397.554688 323.316406 402.835938 322.558594 C 408.164063 321.792969 409.695313 316.308594 407.699219 309.660156 C 405.886719 303.613281 401.4375 298.894531 396.152344 299.632813 C 390.960938 300.355469 389.285156 305.636719 391.117188 312.21875 M 415.804688 308.25 C 419.296875 319.492188 414.507813 327.472656 404.253906 328.957031 C 393.804688 330.46875 385.546875 323.417969 382.902344 313.539063 C 380.1875 303.398438 384.683594 295.089844 394.648438 293.710938 C 404.980469 292.28125 412.941406 299.027344 415.804688 308.25 "/>
<path style="fill:none;stroke-width:10;stroke-linecap:butt;stroke-linejoin:miter;stroke:rgb(0%,0%,0%);stroke-opacity:1;stroke-miterlimit:10;" d="M 3911.171875 1774.0125 C 3929.960938 1706.590625 3975.546875 1663.035937 4028.359375 1670.614062 C 4081.640625 1678.270312 4096.953125 1733.114062 4076.992188 1799.598437 C 4058.867188 1860.067187 4014.375 1907.254687 3961.523438 1899.871875 C 3909.609375 1892.645312 3892.851563 1839.832812 3911.171875 1774.0125 Z M 4158.046875 1813.7 C 4192.96875 1701.278125 4145.078125 1621.473437 4042.539063 1606.629687 C 3938.046875 1591.5125 3855.46875 1662.020312 3829.023438 1760.809375 C 3801.875 1862.215625 3846.835938 1945.301562 3946.484375 1959.090625 C 4049.804688 1973.3875 4129.414063 1905.926562 4158.046875 1813.7 Z M 4158.046875 1813.7 " transform="matrix(0.1,0,0,-0.1,0,489.62)"/>
<path style=" stroke:none;fill-rule:nonzero;fill:rgb(0%,0%,0%);fill-opacity:1;" d="M 455.417969 317.316406 C 453.410156 318.609375 449.414063 320.640625 444.949219 321.554688 C 438.757813 322.820313 433.652344 322.140625 429.351563 319.699219 C 425.113281 317.378906 421.738281 313.269531 419.933594 308.3125 C 415.871094 297.324219 421.5 289.636719 432.203125 287.546875 C 436.402344 286.726563 439.957031 286.894531 441.855469 287.339844 L 442.695313 293.4375 C 440.585938 293.023438 438.097656 292.84375 434.503906 293.550781 C 428.316406 294.769531 424.96875 299.175781 427.722656 306.328125 C 430.394531 313.261719 436.351563 316.523438 442.59375 315.257813 C 444.339844 314.902344 445.65625 314.421875 446.128906 313.996094 L 443.28125 306.953125 L 438.140625 307.984375 L 435.808594 302.117188 L 448.109375 299.667969 "/>
<path style="fill:none;stroke-width:10;stroke-linecap:butt;stroke-linejoin:miter;stroke:rgb(0%,0%,0%);stroke-opacity:1;stroke-miterlimit:10;" d="M 4554.179688 1723.035937 C 4534.101563 1710.10625 4494.140625 1689.79375 4449.492188 1680.653125 C 4387.578125 1667.996875 4336.523438 1674.79375 4293.515625 1699.207812 C 4251.132813 1722.410937 4217.382813 1763.504687 4199.335938 1813.075 C 4158.710938 1922.957812 4215 1999.832812 4322.03125 2020.73125 C 4364.023438 2028.934375 4399.570313 2027.254687 4418.554688 2022.801562 L 4426.953125 1961.825 C 4405.859375 1965.965625 4380.976563 1967.7625 4345.039063 1960.692187 C 4283.164063 1948.504687 4249.6875 1904.442187 4277.226563 1832.91875 C 4303.945313 1763.582812 4363.515625 1730.965625 4425.9375 1743.621875 C 4443.398438 1747.176562 4456.5625 1751.98125 4461.289063 1756.239062 L 4432.8125 1826.66875 L 4381.40625 1816.35625 L 4358.085938 1875.028125 L 4481.09375 1899.520312 Z M 4554.179688 1723.035937 " transform="matrix(0.1,0,0,-0.1,0,489.62)"/>
<path style=" stroke:none;fill-rule:nonzero;fill:rgb(0%,0%,0%);fill-opacity:1;" d="M 459.574219 309.292969 C 462.046875 309.820313 465.585938 310.078125 468.714844 309.277344 C 472.078125 308.414063 473.148438 306.535156 472.085938 304.386719 C 471.078125 302.347656 468.980469 301.574219 464.4375 301.152344 C 458.183594 300.625 453.277344 298.523438 451.0625 293.851563 C 448.492188 288.433594 451.050781 283.230469 458.476563 281.398438 C 462.011719 280.523438 464.980469 280.613281 467.25 280.980469 L 468.519531 287.0625 C 466.953125 286.769531 464.269531 286.445313 461.175781 287.214844 C 458.078125 287.988281 457.257813 289.765625 458.054688 291.410156 C 459.039063 293.441406 461.273438 293.890625 466.152344 294.425781 C 472.8125 295.097656 476.941406 297.386719 479.25 301.957031 C 482.03125 307.464844 480.238281 313.285156 471.300781 315.597656 C 467.566406 316.5625 463.394531 316.515625 461.046875 315.941406 "/>
<path style="fill:none;stroke-width:10;stroke-linecap:butt;stroke-linejoin:miter;stroke:rgb(0%,0%,0%);stroke-opacity:1;stroke-miterlimit:10;" d="M 4595.742188 1803.270312 C 4620.46875 1797.996875 4655.859375 1795.41875 4687.148438 1803.426562 C 4720.78125 1812.059375 4731.484375 1830.848437 4720.859375 1852.332812 C 4710.78125 1872.723437 4689.804688 1880.457812 4644.375 1884.676562 C 4581.835938 1889.95 4532.773438 1910.965625 4510.625 1957.684375 C 4484.921875 2011.864062 4510.507813 2063.895312 4584.765625 2082.215625 C 4620.117188 2090.965625 4649.804688 2090.067187 4672.5 2086.395312 L 4685.195313 2025.575 C 4669.53125 2028.504687 4642.695313 2031.746875 4611.757813 2024.051562 C 4580.78125 2016.317187 4572.578125 1998.54375 4580.546875 1982.098437 C 4590.390625 1961.785937 4612.734375 1957.29375 4661.523438 1951.942187 C 4728.125 1945.223437 4769.414063 1922.332812 4792.5 1876.629687 C 4820.3125 1821.551562 4802.382813 1763.348437 4713.007813 1740.223437 C 4675.664063 1730.575 4633.945313 1731.04375 4610.46875 1736.785937 Z M 4595.742188 1803.270312 " transform="matrix(0.1,0,0,-0.1,0,489.62)"/>
</g>
</svg>
